PathFileType	4	(X/Y/Z)	S00_P01_T02_Participants1-2_P2_0-100.trc
DataRate	CameraRate	NumFrames	NumMarkers	Units	OrigDataRate	OrigDataStartFrame	OrigNumFrames
60	60	5	21	m	60	25	100
Frame#	Time	RHip			RKnee			RAnkle			RBigToe			RSmallToe			RHeel			LHip			LKnee			LAnkle			LBigToe			LSmallToe			LHeel			Neck			Head			Nose			RShoulder			RElbow			RWrist			LShoulder			LElbow			LWrist		
		X1	Y1	Z1	X2	Y2	Z2	X3	Y3	Z3	X4	Y4	Z4	X5	Y5	Z5	X6	Y6	Z6	X7	Y7	Z7	X8	Y8	Z8	X9	Y9	Z9	X10	Y10	Z10	X11	Y11	Z11	X12	Y12	Z12	X13	Y13	Z13	X14	Y14	Z14	X15	Y15	Z15	X16	Y16	Z16	X17	Y17	Z17	X18	Y18	Z18	X19	Y19	Z19	X20	Y20	Z20	X21	Y21	Z21
26	0.4333333333333333	-0.16550283393947965	0.94981059265887	-1.2003215181953055	-0.3751502602274123	0.6147348898984766	-1.0636339615011896	-0.3420022187341274	0.24259994508482668	-1.2777091106653653	-0.38016103872068757	0.14252482768560318	-1.133450288808553	-0.4215769173238966	0.1490198227464608	-1.1755283558927507	-0.31605001456628273	0.21557320254540926	-1.3166508442755385	0.025498730977624486	0.8762830252201075	-1.1727261983639865	-0.06114982538891208	0.5279435262093936	-0.9498483465768173	-0.013234883947457624	0.1463179138385942	-1.1563812447262745	-0.009307923669542533	0.08158194208280783	-0.9960721847053193	0.025641704355145026	0.0824815535445621	-1.0350369195075495	-0.005230928960559167	0.11519465262906307	-1.2126966782203112	0.18716788015936578	1.3949653598347524	-1.1424997501599874	0.27505182856728405	1.6077258104202323	-0.9934805907751236	0.2138905090115822	1.477559640606341	-0.9592125768841504	0.024513633146466155	1.4322259679105314	-1.1808007205711313	-0.20890084974499815	1.3879758181522348	-1.2279479002398226	-0.35346198677930885	1.4782121110861268	-1.0820048525121457	0.30801658669901594	1.2686990695817704	-1.1510185244508444	0.34220209195428386	0.9832523732409628	-1.1434927722021913	0.33498248728831076	0.7313900467210515	-1.0890031002627736
27	0.45	-0.16922884213909625	0.9499205794038694	-1.1953341976382839	-0.3876869514844233	0.6214344100263941	-1.0553195049973054	-0.3801526357724881	0.24271528916722265	-1.2538740314623464	-0.41894124810660666	0.14731675153863072	-1.1080431175052423	-0.4607778240064941	0.15369056218500918	-1.1506924290615872	-0.35779743976300193	0.21526924982631995	-1.2919487306054824	0.02489300582431808	0.8747972183241136	-1.1604140054757348	-0.06148720962606925	0.5289605210126171	-0.9400369083414262	-0.01201527870208516	0.14638583880976486	-1.1551690146922158	-0.010302801311401325	0.08005183838547716	-0.9956464805464121	0.024147832394597314	0.0811279800911952	-1.0333713359921335	-0.004390945592670445	0.11458193152950419	-1.2115809389163659	0.19276474446487532	1.3885895451160462	-1.1360118357616538	0.2875052403226628	1.6040242336858945	-0.9793250104551097	0.2197856358834914	1.4739305329347205	-0.9516833054612652	0.031329230455226925	1.4301200991829381	-1.1675286233521627	-0.2045722584635079	1.394611165935428	-1.2225766229416468	-0.34729966036984483	1.4879267902300934	-1.08217562373333	0.31120082304609514	1.2619794007418883	-1.1459287487219818	0.3394900339012254	0.9772065774731472	-1.1388056652038934	0.3328678487213649	0.7223771666492528	-1.0749025264224377
28	0.4666666666666667	-0.17220743957801166	0.951114710055959	-1.1858400106300797	-0.39976147256060196	0.6271489850796513	-1.0476090245046568	-0.4179518936185078	0.24582964430858045	-1.230346029747249	-0.4578708643355704	0.15486481271972805	-1.0824277782742557	-0.4987344989731046	0.16070323007296572	-1.1288788169328514	-0.39918929965610056	0.21728376027756102	-1.2695170053179803	0.02304196651027486	0.8737013800574613	-1.1513164778229164	-0.06205794461931294	0.5281071774692849	-0.9337337708441384	-0.011308978712186156	0.14543148022192878	-1.1544802307709425	-0.01115872383838585	0.07901984677142135	-0.9953787001084767	0.022955411157983604	0.07989973423491246	-1.0320253329757427	-0.0037308462943477652	0.11298259148287597	-1.2104299977049473	0.19793604825580938	1.3821989678093685	-1.1288789321551516	0.2992194904435223	1.5999051471274368	-0.9666032895994677	0.2251571767519247	1.469828872659042	-0.9452304310086417	0.03815820993639002	1.4277542587152172	-1.1550470413529021	-0.20044366410004333	1.401819369503633	-1.217029792504535	-0.34093575809926485	1.4974867411024575	-1.081360008496651	0.3140882796624765	1.2552773535235284	-1.1418057562655435	0.33702785242422234	0.970798806167811	-1.1341008150292586	0.3314016924805803	0.7152696878554314	-1.0617696015176383
29	0.4833333333333333	-0.17438565591175859	0.9534815779769141	-1.172221623842429	-0.41162934169823756	0.6327138500729415	-1.0394885617889043	-0.45405347297214377	0.25137069974779885	-1.2080909441947854	-0.49513323561023376	0.16524327376064624	-1.058014530883689	-0.5343742187888634	0.17006050245119989	-1.109773659060295	-0.43936758338242254	0.22156981079480514	-1.2491926493512555	0.02027542456647541	0.8728784843978026	-1.1453990971181605	-0.06302240618134622	0.5259275056980358	-0.9299797838438659	-0.01124502302116006	0.14399550317296184	-1.1542533279845968	-0.011677958602504618	0.07834959618845558	-0.9955992499616758	0.022277388397892502	0.0789479540004992	-1.0311542673766674	-0.0034723591418611833	0.1110235480639128	-1.2092295045841401	0.20259585844499095	1.375996536339026	-1.1212524123014278	0.3098087663286812	1.5948064919957254	-0.9561358831779896	0.2306955299760734	1.4645647716976857	-0.9392568433698303	0.04468880372029578	1.425217233774416	-1.1437558069622469	-0.19633824407780476	1.4090526882962813	-1.2114351518803272	-0.33446669980488075	1.5072622015237729	-1.0796374553030854	0.31682192387000885	1.248580875971364	-1.138293078252765	0.3356629064861806	0.9639994278340219	-1.1287070534701567	0.3304896257550924	0.7100101422997968	-1.0493309567140081
30	0.5	-0.17616714961159285	0.9564401347825549	-1.1569714842133387	-0.42329762760839545	0.6386813087399865	-1.0309224420981749	-0.4876223286810422	0.2588057858102435	-1.1872662239434986	-0.5291010861495788	0.17724380111843857	-1.037044625703159	-0.5669062459634346	0.18160436052304818	-1.0925988932105288	-0.47730820341759017	0.22771833987021	-1.230630069814023	0.016919270901108157	0.8720545447747802	-1.141790424111281	-0.0641522408763508	0.5229506522174764	-0.927783445080423	-0.011680046071880359	0.14262666018379722	-1.1545284428208304	-0.011760772150140703	0.0778736350621816	-0.9964061793077426	0.02210650773916668	0.07838441768524	-1.0307808150409064	-0.0036228130894385316	0.10922767770011502	-1.2081961003699606	0.20676300576222448	1.3702374299462816	-1.1134862741043345	0.3194948937305168	1.5888948148622402	-0.9474313606867635	0.23705426741141464	1.457646619724045	-0.9332018692368242	0.05049373213417473	1.42255257639117	-1.1343343886466362	-0.19242925653651757	1.4157790933090026	-1.2065042731312587	-0.32771653630618464	1.5174800749359791	-1.0769258938041169	0.31950095010226953	1.2419672084806512	-1.1348204920530103	0.33597094190634436	0.9568547206787436	-1.1223727083964572	0.3301460940419738	0.7061359325461648	-1.0373826750082444
